<svg xmlns="http://www.w3.org/2000/svg" width="980" height="420" viewBox="0 0 980 420"><rect width="980" height="420" fill="white"/><text x="490.0" y="28" text-anchor="middle" font-size="18" font-family="Segoe UI, Arial">Absolute Score Delta by Input Perturbation</text><line x1="80" y1="330" x2="920" y2="330" stroke="#111827" stroke-width="1"/><line x1="80" y1="90" x2="80" y2="330" stroke="#111827" stroke-width="1"/><rect x="92.0" y="282.0" width="116.0" height="48.0" fill="#ea580c" rx="4"/><text x="150.0" y="348" text-anchor="middle" font-size="10" font-family="Segoe UI, Arial">net_income_up_15pct</text><text x="150.0" y="276.0" text-anchor="middle" font-size="10" font-family="Segoe UI, Arial">0.80</text><rect x="232.0" y="276.0" width="116.0" height="54.0" fill="#ea580c" rx="4"/><text x="290.0" y="348" text-anchor="middle" font-size="10" font-family="Segoe UI, Arial">net_income_down_15pct</text><text x="290.0" y="270.0" text-anchor="middle" font-size="10" font-family="Segoe UI, Arial">0.90</text><rect x="372.0" y="306.0" width="116.0" height="24.0" fill="#ea580c" rx="4"/><text x="430.0" y="348" text-anchor="middle" font-size="10" font-family="Segoe UI, Arial">debt_to_equity_up_25pct</text><text x="430.0" y="300.0" text-anchor="middle" font-size="10" font-family="Segoe UI, Arial">0.40</text><rect x="512.0" y="282.0" width="116.0" height="48.0" fill="#ea580c" rx="4"/><text x="570.0" y="348" text-anchor="middle" font-size="10" font-family="Segoe UI, Arial">ebit_margin_down_20pct</text><text x="570.0" y="276.0" text-anchor="middle" font-size="10" font-family="Segoe UI, Arial">0.80</text><rect x="652.0" y="276.0" width="116.0" height="54.0" fill="#ea580c" rx="4"/><text x="710.0" y="348" text-anchor="middle" font-size="10" font-family="Segoe UI, Arial">one_year_return_minus_15pt</text><text x="710.0" y="270.0" text-anchor="middle" font-size="10" font-family="Segoe UI, Arial">0.90</text><rect x="792.0" y="90.0" width="116.0" height="240.0" fill="#ea580c" rx="4"/><text x="850.0" y="348" text-anchor="middle" font-size="10" font-family="Segoe UI, Arial">revenue_current_plus_10pct</text><text x="850.0" y="84.0" text-anchor="middle" font-size="10" font-family="Segoe UI, Arial">4.00</text></svg>