<svg xmlns="http://www.w3.org/2000/svg" width="980" height="420" viewBox="0 0 980 420"><rect width="980" height="420" fill="white"/><text x="490.0" y="28" text-anchor="middle" font-size="18" font-family="Segoe UI, Arial">Average Absolute Rank Delta by Weight Perturbation</text><line x1="80" y1="330" x2="920" y2="330" stroke="#111827" stroke-width="1"/><line x1="80" y1="90" x2="80" y2="330" stroke="#111827" stroke-width="1"/><polyline fill="none" stroke="#7c3aed" stroke-width="2" points="80.0,330.0 156.4,330.0 232.7,330.0 309.1,330.0 385.5,330.0 461.8,330.0 538.2,330.0 614.5,330.0 690.9,330.0 767.3,330.0 843.6,330.0 920.0,330.0"/><circle cx="80.0" cy="330.0" r="4" fill="#7c3aed"/><text x="80.0" y="348" text-anchor="middle" font-size="10" font-family="Segoe UI, Arial">profitability_0.8x</text><text x="80.0" y="322.0" text-anchor="middle" font-size="10" font-family="Segoe UI, Arial">0.00</text><circle cx="156.4" cy="330.0" r="4" fill="#7c3aed"/><text x="156.4" y="348" text-anchor="middle" font-size="10" font-family="Segoe UI, Arial">profitability_1.2x</text><text x="156.4" y="322.0" text-anchor="middle" font-size="10" font-family="Segoe UI, Arial">0.00</text><circle cx="232.7" cy="330.0" r="4" fill="#7c3aed"/><text x="232.7" y="348" text-anchor="middle" font-size="10" font-family="Segoe UI, Arial">stability_0.8x</text><text x="232.7" y="322.0" text-anchor="middle" font-size="10" font-family="Segoe UI, Arial">0.00</text><circle cx="309.1" cy="330.0" r="4" fill="#7c3aed"/><text x="309.1" y="348" text-anchor="middle" font-size="10" font-family="Segoe UI, Arial">stability_1.2x</text><text x="309.1" y="322.0" text-anchor="middle" font-size="10" font-family="Segoe UI, Arial">0.00</text><circle cx="385.5" cy="330.0" r="4" fill="#7c3aed"/><text x="385.5" y="348" text-anchor="middle" font-size="10" font-family="Segoe UI, Arial">valuation_0.8x</text><text x="385.5" y="322.0" text-anchor="middle" font-size="10" font-family="Segoe UI, Arial">0.00</text><circle cx="461.8" cy="330.0" r="4" fill="#7c3aed"/><text x="461.8" y="348" text-anchor="middle" font-size="10" font-family="Segoe UI, Arial">valuation_1.2x</text><text x="461.8" y="322.0" text-anchor="middle" font-size="10" font-family="Segoe UI, Arial">0.00</text><circle cx="538.2" cy="330.0" r="4" fill="#7c3aed"/><text x="538.2" y="348" text-anchor="middle" font-size="10" font-family="Segoe UI, Arial">growth_0.8x</text><text x="538.2" y="322.0" text-anchor="middle" font-size="10" font-family="Segoe UI, Arial">0.00</text><circle cx="614.5" cy="330.0" r="4" fill="#7c3aed"/><text x="614.5" y="348" text-anchor="middle" font-size="10" font-family="Segoe UI, Arial">growth_1.2x</text><text x="614.5" y="322.0" text-anchor="middle" font-size="10" font-family="Segoe UI, Arial">0.00</text><circle cx="690.9" cy="330.0" r="4" fill="#7c3aed"/><text x="690.9" y="348" text-anchor="middle" font-size="10" font-family="Segoe UI, Arial">market_0.8x</text><text x="690.9" y="322.0" text-anchor="middle" font-size="10" font-family="Segoe UI, Arial">0.00</text><circle cx="767.3" cy="330.0" r="4" fill="#7c3aed"/><text x="767.3" y="348" text-anchor="middle" font-size="10" font-family="Segoe UI, Arial">market_1.2x</text><text x="767.3" y="322.0" text-anchor="middle" font-size="10" font-family="Segoe UI, Arial">0.00</text><circle cx="843.6" cy="330.0" r="4" fill="#7c3aed"/><text x="843.6" y="348" text-anchor="middle" font-size="10" font-family="Segoe UI, Arial">macro_0.8x</text><text x="843.6" y="322.0" text-anchor="middle" font-size="10" font-family="Segoe UI, Arial">0.00</text><circle cx="920.0" cy="330.0" r="4" fill="#7c3aed"/><text x="920.0" y="348" text-anchor="middle" font-size="10" font-family="Segoe UI, Arial">macro_1.2x</text><text x="920.0" y="322.0" text-anchor="middle" font-size="10" font-family="Segoe UI, Arial">0.00</text></svg>