<svg xmlns="http://www.w3.org/2000/svg" width="980" height="420" viewBox="0 0 980 420"><rect width="980" height="420" fill="white"/><text x="490.0" y="28" text-anchor="middle" font-size="18" font-family="Segoe UI, Arial">Average Absolute Score Delta by Weight Block</text><line x1="80" y1="330" x2="920" y2="330" stroke="#111827" stroke-width="1"/><line x1="80" y1="90" x2="80" y2="330" stroke="#111827" stroke-width="1"/><rect x="92.0" y="198.8" width="116.0" height="131.2" fill="#2563eb" rx="4"/><text x="150.0" y="348" text-anchor="middle" font-size="10" font-family="Segoe UI, Arial">profitability</text><text x="150.0" y="192.8" text-anchor="middle" font-size="10" font-family="Segoe UI, Arial">0.47</text><rect x="232.0" y="126.3" width="116.0" height="203.7" fill="#2563eb" rx="4"/><text x="290.0" y="348" text-anchor="middle" font-size="10" font-family="Segoe UI, Arial">stability</text><text x="290.0" y="120.3" text-anchor="middle" font-size="10" font-family="Segoe UI, Arial">0.73</text><rect x="372.0" y="90.0" width="116.0" height="240.0" fill="#2563eb" rx="4"/><text x="430.0" y="348" text-anchor="middle" font-size="10" font-family="Segoe UI, Arial">valuation</text><text x="430.0" y="84.0" text-anchor="middle" font-size="10" font-family="Segoe UI, Arial">0.86</text><rect x="512.0" y="215.6" width="116.0" height="114.4" fill="#2563eb" rx="4"/><text x="570.0" y="348" text-anchor="middle" font-size="10" font-family="Segoe UI, Arial">growth</text><text x="570.0" y="209.6" text-anchor="middle" font-size="10" font-family="Segoe UI, Arial">0.41</text><rect x="652.0" y="210.0" width="116.0" height="120.0" fill="#2563eb" rx="4"/><text x="710.0" y="348" text-anchor="middle" font-size="10" font-family="Segoe UI, Arial">market</text><text x="710.0" y="204.0" text-anchor="middle" font-size="10" font-family="Segoe UI, Arial">0.43</text><rect x="792.0" y="243.5" width="116.0" height="86.5" fill="#2563eb" rx="4"/><text x="850.0" y="348" text-anchor="middle" font-size="10" font-family="Segoe UI, Arial">macro</text><text x="850.0" y="237.5" text-anchor="middle" font-size="10" font-family="Segoe UI, Arial">0.31</text></svg>